<?xml version="1.0" encoding="UTF-8" standalone="no"?>
<svg
   width="94.867432pt"
   height="94.878807pt"
   viewBox="0 0 94.867432 94.878807"
   version="1.1"
   id="svg11"
   sodipodi:docname="g4m.svg"
   inkscape:version="1.4 (86a8ad7, 2024-10-11)"
   inkscape:export-filename="g4m.png"
   inkscape:export-xdpi="156.52174"
   inkscape:export-ydpi="156.52174"
   xml:space="preserve"
   xmlns:inkscape="http://www.inkscape.org/namespaces/inkscape"
   xmlns:sodipodi="http://sodipodi.sourceforge.net/DTD/sodipodi-0.dtd"
   xmlns="http://www.w3.org/2000/svg"
   xmlns:svg="http://www.w3.org/2000/svg"><sodipodi:namedview
     id="namedview13"
     pagecolor="#ffffff"
     bordercolor="#000000"
     borderopacity="0.25"
     inkscape:showpageshadow="2"
     inkscape:pageopacity="0.0"
     inkscape:pagecheckerboard="0"
     inkscape:deskcolor="#d1d1d1"
     inkscape:document-units="pt"
     showgrid="false"
     inkscape:zoom="4.6922684"
     inkscape:cx="113.378"
     inkscape:cy="56.582441"
     inkscape:window-width="1920"
     inkscape:window-height="1017"
     inkscape:window-x="1912"
     inkscape:window-y="-8"
     inkscape:window-maximized="1"
     inkscape:current-layer="svg11" /><defs
     id="defs5"><inkscape:path-effect
       effect="fillet_chamfer"
       id="path-effect8"
       is_visible="true"
       lpeversion="1"
       nodesatellites_param="F,0,0,1,0,1.875,0,1 @ F,0,0,1,0,1.875,0,1 @ F,0,0,1,0,1.875,0,1 @ F,0,0,1,0,1.875,0,1 @ F,0,0,1,0,1.875,0,1 @ F,0,0,1,0,1.875,0,1 @ F,0,0,1,0,1.875,0,1 @ F,0,0,1,0,1.875,0,1 @ F,0,0,1,0,1.875,0,1 @ F,0,0,1,0,1.875,0,1 @ F,0,0,1,0,1.875,0,1 @ F,0,0,1,0,1.875,0,1 @ F,0,0,1,0,1.875,0,1 @ F,0,0,1,0,1.875,0,1 @ F,0,0,1,0,1.875,0,1 @ F,0,0,1,0,1.875,0,1"
       radius="2.5"
       unit="px"
       method="auto"
       mode="F"
       chamfer_steps="1"
       flexible="false"
       use_knot_distance="true"
       apply_no_radius="true"
       apply_with_radius="true"
       only_selected="false"
       hide_knots="false" /><inkscape:path-effect
       effect="powermask"
       id="path-effect5"
       is_visible="true"
       lpeversion="1"
       uri="#mask-powermask-path-effect5"
       invert="false"
       hide_mask="false"
       background="true"
       background_color="#ffffffff" /><inkscape:path-effect
       effect="powermask"
       id="path-effect2"
       is_visible="true"
       lpeversion="1"
       uri="#mask-powermask-path-effect2"
       invert="false"
       hide_mask="false"
       background="true"
       background_color="#ffffffff" /><inkscape:path-effect
       effect="powermask"
       id="path-effect2541"
       is_visible="true"
       lpeversion="1"
       uri="#mask-powermask-path-effect2541"
       invert="false"
       hide_mask="false"
       background="false"
       background_color="#ffffffff" /><inkscape:path-effect
       effect="powerclip"
       id="path-effect2509"
       is_visible="true"
       lpeversion="1"
       inverse="true"
       flatten="false"
       hide_clip="false"
       message="" /><clipPath
       id="a"><path
         d="M 0,0.113 H 91.887 V 92 H 0 Z m 0,0"
         id="path2" /></clipPath><filter
       id="mask-powermask-path-effect454_inverse"
       inkscape:label="filtermask-powermask-path-effect454"
       style="color-interpolation-filters:sRGB"
       height="100"
       width="100"
       x="-50"
       y="-50"><feColorMatrix
         id="mask-powermask-path-effect454_primitive1"
         values="1"
         type="saturate"
         result="fbSourceGraphic" /><feColorMatrix
         id="mask-powermask-path-effect454_primitive2"
         values="-1 0 0 0 1 0 -1 0 0 1 0 0 -1 0 1 0 0 0 1 0 "
         in="fbSourceGraphic" /></filter><filter
       id="mask-powermask-path-effect2523_inverse"
       inkscape:label="filtermask-powermask-path-effect2523"
       style="color-interpolation-filters:sRGB"
       height="100"
       width="100"
       x="-50"
       y="-50"><feColorMatrix
         id="mask-powermask-path-effect2523_primitive1"
         values="1"
         type="saturate"
         result="fbSourceGraphic" /><feColorMatrix
         id="mask-powermask-path-effect2523_primitive2"
         values="-1 0 0 0 1 0 -1 0 0 1 0 0 -1 0 1 0 0 0 1 0 "
         in="fbSourceGraphic" /></filter><mask
       maskUnits="userSpaceOnUse"
       id="mask-powermask-path-effect2541"><text
         xml:space="preserve"
         style="font-size:28px;font-family:'Times New Roman';-inkscape-font-specification:'Times New Roman, ';text-align:center;text-anchor:middle;fill:#d766d6;fill-opacity:1;stroke:#000000;stroke-width:3;stroke-linecap:round;stroke-linejoin:round;stroke-dasharray:none;stroke-opacity:1"
         x="27.012285"
         y="52.685551"
         id="text2539"><tspan
           sodipodi:role="line"
           id="tspan2537"
           style="fill:#d766d6;fill-opacity:1;stroke:#000000;stroke-width:3;stroke-opacity:1"
           x="27.012285"
           y="52.685551">∑</tspan></text></mask><filter
       id="mask-powermask-path-effect2_inverse"
       inkscape:label="filtermask-powermask-path-effect2"
       style="color-interpolation-filters:sRGB"
       height="100"
       width="100"
       x="-50"
       y="-50"><feColorMatrix
         id="mask-powermask-path-effect2_primitive1"
         values="1"
         type="saturate"
         result="fbSourceGraphic" /><feColorMatrix
         id="mask-powermask-path-effect2_primitive2"
         values="-1 0 0 0 1 0 -1 0 0 1 0 0 -1 0 1 0 0 0 1 0 "
         in="fbSourceGraphic" /></filter><mask
       maskUnits="userSpaceOnUse"
       id="mask-powermask-path-effect5"><path
         id="mask-powermask-path-effect5_box"
         style="fill:#ffffff;fill-opacity:1"
         d="M -1.0001843,-0.88675719 H 92.887289 V 93.001857 H -1.0001843 Z" /><path
         id="path5"
         style="fill:#ffffff;fill-opacity:1"
         d="M -1.9938936,-1.8804442 H 93.881052 V 93.995598 H -1.9938936 Z" /><path
         id="path6"
         style="fill:#ffffff;fill-opacity:1"
         d="M -1.0001843,-0.88675719 H 92.887289 V 93.001857 H -1.0001843 Z" /><text
         xml:space="preserve"
         style="font-size:28px;font-family:'Times New Roman';-inkscape-font-specification:'Times New Roman, ';text-align:center;text-anchor:middle;fill:#d766d6;fill-opacity:1;stroke:#000000;stroke-width:3;stroke-linecap:round;stroke-linejoin:round;stroke-dasharray:none;stroke-opacity:1"
         x="27.012285"
         y="52.685551"
         id="text6"><tspan
           sodipodi:role="line"
           id="tspan6"
           style="fill:#d766d6;fill-opacity:1;stroke:#000000;stroke-width:3;stroke-opacity:1"
           x="27.012285"
           y="52.685551">∑</tspan></text></mask><filter
       id="mask-powermask-path-effect5_inverse"
       inkscape:label="filtermask-powermask-path-effect5"
       style="color-interpolation-filters:sRGB"
       height="100"
       width="100"
       x="-50"
       y="-50"><feColorMatrix
         id="mask-powermask-path-effect5_primitive1"
         values="1"
         type="saturate"
         result="fbSourceGraphic" /><feColorMatrix
         id="mask-powermask-path-effect5_primitive2"
         values="-1 0 0 0 1 0 -1 0 0 1 0 0 -1 0 1 0 0 0 1 0 "
         in="fbSourceGraphic" /></filter><clipPath
       id="a-0"><path
         d="M 0,0.113 H 91.887 V 92 H 0 Z m 0,0"
         id="path1" /></clipPath></defs><g
     id="g8"
     transform="translate(1.1176991,2.8136861)"><path
       id="path8"
       clip-path="url(#clipPath2)"
       style="fill:#100f0d;fill-opacity:1;fill-rule:nonzero;stroke:#e6e6e6;stroke-width:3;stroke-dasharray:none;stroke-opacity:1"
       d="M 46.223314,-1.3136861 A 5.913,5.913 0 0 0 42.03972,0.42215373 L 33.707689,8.754185 44.273607,19.320104 a 7.03,7.03 0 0 1 7.230468,1.683105 7.043,7.043 0 0 1 1.672852,7.277344 l 10.183594,10.183594 a 7.026,7.026 0 0 1 7.277343,1.672851 7.04,7.04 0 0 1 0,9.956543 7.045,7.045 0 0 1 -9.960937,0 7.038,7.038 0 0 1 -1.532227,-7.659668 l -9.499511,-9.496582 v 24.996094 a 7.04,7.04 0 0 1 1.860351,11.291016 7.04,7.04 0 0 1 -9.958008,0 7.04,7.04 0 0 1 0,-9.958008 7.034,7.034 0 0 1 2.308594,-1.539551 V 32.499303 A 7.001,7.001 0 0 1 41.547532,30.964147 7.049,7.049 0 0 1 40.031419,23.264928 L 29.61345,12.846958 2.1066147,40.350866 a 5.918,5.918 0 0 0 0,8.370117 L 42.22722,88.843053 a 5.92,5.92 0 0 0 8.367187,0 L 90.527513,48.909948 a 5.925,5.925 0 0 0 0,-8.371582 L 50.408372,0.42215373 A 5.913,5.913 0 0 0 46.223314,-1.3136861 Z M 19.457689,30.631627 H 32.56511 a 1.875,1.875 0 0 1 1.875,1.875 v 3.823242 a 1.875,1.875 0 0 1 -1.875,1.875 H 31.665696 A 2.2958555,2.2958555 0 0 1 29.417161,36.367955 1.8134038,1.8134038 0 0 0 27.341478,35.38944 h -2.087403 a 0.93634375,0.93634375 0 0 0 -0.748535,1.498535 l 4.404785,5.86084 a 2.6076592,2.6076592 0 0 1 0.06445,3.043945 L 24.4821,52.328893 a 0.98630721,0.98630721 0 0 0 0.812988,1.543945 h 2.307129 a 2.0906694,2.0906694 0 0 0 2.077148,-1.863281 1.7252818,1.7252818 0 0 1 2.000977,-1.144043 h 1.130859 a 1.875,1.875 0 0 1 1.875,1.875 v 4.015137 a 1.875,1.875 0 0 1 -1.875,1.875 H 19.457689 a 1.875,1.875 0 0 1 -1.875,-1.875 v -1.705078 a 5.8684672,5.8684672 0 0 1 1.086914,-3.401368 l 4.168945,-5.859375 a 2.5161449,2.5161449 0 0 0 -0.06592,-3.005859 l -4.037109,-5.178223 a 5.4533953,5.4533953 0 0 1 -1.152832,-3.353027 v -1.746094 a 1.875,1.875 0 0 1 1.875,-1.875 z" /><g
       clip-path="none"
       id="g4"
       mask="url(#mask-powermask-path-effect5)"
       style="stroke:none;stroke-width:2;stroke-dasharray:none;stroke-opacity:1" /><path
       id="path2-9"
       clip-path="url(#clipPath2)"
       style="fill:#100f0d;fill-opacity:1;fill-rule:nonzero;stroke:none"
       d="M 46.223314,-1.3136861 A 5.913,5.913 0 0 0 42.03972,0.42215373 L 33.707689,8.754185 44.273607,19.320104 a 7.03,7.03 0 0 1 7.230468,1.683105 7.043,7.043 0 0 1 1.672852,7.277344 l 10.183594,10.183594 a 7.026,7.026 0 0 1 7.277343,1.672851 7.04,7.04 0 0 1 0,9.956543 7.045,7.045 0 0 1 -9.960937,0 7.038,7.038 0 0 1 -1.532227,-7.659668 l -9.499511,-9.496582 v 24.996094 a 7.04,7.04 0 0 1 1.860351,11.291016 7.04,7.04 0 0 1 -9.958008,0 7.04,7.04 0 0 1 0,-9.958008 7.034,7.034 0 0 1 2.308594,-1.539551 V 32.499303 A 7.001,7.001 0 0 1 41.547532,30.964147 7.049,7.049 0 0 1 40.031419,23.264928 L 29.61345,12.846958 2.1066147,40.350866 a 5.918,5.918 0 0 0 0,8.370117 L 42.22722,88.843053 a 5.92,5.92 0 0 0 8.367187,0 L 90.527513,48.909948 a 5.925,5.925 0 0 0 0,-8.371582 L 50.408372,0.42215373 A 5.913,5.913 0 0 0 46.223314,-1.3136861 Z M 19.457689,30.631627 H 32.56511 a 1.875,1.875 0 0 1 1.875,1.875 v 3.823242 a 1.875,1.875 0 0 1 -1.875,1.875 H 31.665696 A 2.2958555,2.2958555 0 0 1 29.417161,36.367955 1.8134038,1.8134038 0 0 0 27.341478,35.38944 h -2.087403 a 0.93634375,0.93634375 0 0 0 -0.748535,1.498535 l 4.404785,5.86084 a 2.6076592,2.6076592 0 0 1 0.06445,3.043945 L 24.4821,52.328893 a 0.98630721,0.98630721 0 0 0 0.812988,1.543945 h 2.307129 a 2.0906694,2.0906694 0 0 0 2.077148,-1.863281 1.7252818,1.7252818 0 0 1 2.000977,-1.144043 h 1.130859 a 1.875,1.875 0 0 1 1.875,1.875 v 4.015137 a 1.875,1.875 0 0 1 -1.875,1.875 H 19.457689 a 1.875,1.875 0 0 1 -1.875,-1.875 v -1.705078 a 5.8684672,5.8684672 0 0 1 1.086914,-3.401368 l 4.168945,-5.859375 a 2.5161449,2.5161449 0 0 0 -0.06592,-3.005859 l -4.037109,-5.178223 a 5.4533953,5.4533953 0 0 1 -1.152832,-3.353027 v -1.746094 a 1.875,1.875 0 0 1 1.875,-1.875 z" /></g></svg>
